<svg width="0" height="0" fill="none" style="visibility: hidden; position: absolute;" aria-hidden="true">
    <symbol id="fire" width="58" height="58" viewBox="0 0 58 58" fill="none" xmlns="http://www.w3.org/2000/svg">
        <g clip-path="url(#clip0_1_253__fire)">
            <path d="M29 57.5397C44.762 57.5397 57.5397 44.762 57.5397 29C57.5397 13.238 44.762 0.460327 29 0.460327C13.238 0.460327 0.460316 13.238 0.460316 29C0.460316 44.762 13.238 57.5397 29 57.5397Z" stroke="black" stroke-width="1.01587"/>
            <path d="M37.9486 21.3956C37.8694 21.1157 37.4827 21.1341 37.4422 21.4223C37.2001 23.1116 38.5921 27.1081 38.095 28.9567C38.0915 28.969 38.0882 28.9813 38.0848 28.9936C37.9771 29.3894 37.4091 29.3121 37.4045 28.9006C37.3879 27.3033 36.9791 25.5559 36.1027 24.4861C32.8004 20.4565 36.3273 17.4829 36.1966 16.519C36.1937 16.4893 36.184 16.4608 36.1683 16.4355C36.1526 16.4102 36.1313 16.3888 36.106 16.3731C36.0808 16.3573 36.0522 16.3476 36.0226 16.3446C35.9929 16.3417 35.963 16.3456 35.9351 16.356C35.9305 16.3578 35.9269 16.3588 35.9259 16.3606C35.7142 16.4803 35.5172 16.6248 35.3202 16.7657C33.9991 17.7103 32.7884 18.8463 32.0887 20.3773C31.6873 21.2575 31.5815 22.2398 31.3522 23.1742C31.2638 23.5296 31.1635 23.8813 31.0457 24.2274C30.914 24.6159 30.7299 25.0063 30.438 25.2944C30.3073 25.4233 30.148 25.5182 29.9713 25.5531C29.5073 25.6452 29.2615 25.3138 29.1731 24.9244C28.9273 23.8398 29.1086 22.7443 29.2007 21.6524C29.5708 17.2573 24.9124 16.8485 26.6137 10.4391C27.0648 8.74143 20.9702 14.3232 23.0232 19.1796C23.4256 20.1297 23.3878 21.0356 22.933 21.9507C22.4478 22.9266 21.8504 23.8085 21.5557 24.8765C21.4508 25.2604 21.391 25.6489 21.344 26.0429C21.2842 26.5502 21.4269 27.3134 20.776 27.445C20.5053 27.5003 20.1315 27.4699 19.9069 27.2885C19.732 27.1458 19.6353 26.924 19.5782 26.7021C19.3085 25.6655 19.3416 24.6169 19.4696 23.5591C19.5828 22.6274 19.6611 20.8726 18.7202 22.6237C15.6858 28.2672 15.7944 35.2944 19.4981 40.588C20.9224 42.6236 22.7296 43.9207 25.0928 44.5136C29.9004 45.7197 35.6479 45.3542 38.674 41.1054C39.8304 39.4824 40.5245 37.5002 40.9784 35.5586C41.5584 33.0784 41.6689 30.7225 40.7611 28.316C39.881 25.9803 38.6363 23.8095 37.9486 21.3956Z" fill="black"/>
        </g>
        <defs>
            <clipPath id="clip0_1_253__fire">
                <rect width="58" height="58" fill="white"/>
            </clipPath>
        </defs>
    </symbol>
    <symbol id="flame" width="58" height="88" viewBox="0 0 58 88" fill="none" xmlns="http://www.w3.org/2000/svg">
        <g clip-path="url(#clip0_1_269__flame)">
            <path d="M44.2457 54.3773C44.1647 54.1949 43.9594 54.2378 43.9161 54.433C43.4954 56.334 44.0248 64.3505 40.5245 63.3298C38.0922 62.6201 38.0922 56.0895 42.8998 52.4115C49.2392 47.5622 44.9878 35.7755 43.4199 31.6787C43.2846 31.3275 42.816 31.4562 42.8399 31.8366C43.1612 36.7944 43.9253 40.2289 42.1025 42.9008C40.0679 45.881 37.3566 40.1733 39.9556 38.1454C42.5545 36.1157 42.3308 32.0245 40.4638 29.3316C38.895 27.0684 38.512 23.1432 38.4319 20.7413C38.4117 20.1292 37.6438 20.0161 37.4837 20.6017C36.7223 23.3831 37.1191 26.3496 36.4553 29.1565C36.1948 30.2603 35.7391 31.3449 34.9933 32.2169C34.4934 32.8008 33.8352 33.3937 33.083 33.6254C32.0639 33.941 31.425 33.235 31.2777 32.2753C31.1294 31.3093 31.3329 30.2867 31.6257 29.3663C31.9663 28.299 32.2977 27.2408 32.4984 26.1361C32.8906 23.976 32.8934 21.5149 31.4443 19.7123C30.9214 19.0638 30.2456 18.5511 29.5018 18.1707C23.6981 15.206 25.9545 14.7517 25.7787 9.01027C25.7548 8.20478 24.6445 7.98859 24.3057 8.72109C20.6443 16.6692 21.3864 19.3028 23.0941 23.0556C25.4012 28.1275 27.7093 34.9755 23.5489 34.6726C19.8784 34.4044 21.4223 24.9074 20.3212 21.3634C20.1398 20.7769 19.2689 20.89 19.245 21.503C19.1547 23.904 18.7202 27.8301 16.9397 30.0924C14.8222 32.7862 14.5681 36.8774 17.5169 38.9062C20.4648 40.935 17.388 46.6418 15.0809 43.6616C13.0123 40.9897 13.8795 37.5543 14.2432 32.5964C14.2717 32.2151 13.7396 32.0865 13.5867 32.4377C11.8081 36.5345 7.96534 47.3861 14.1833 53.1723C15.7254 54.6063 17.5409 55.7785 18.7349 57.5463C19.5322 58.7267 19.9631 60.2821 19.5221 61.6723C19.0885 63.0406 17.3494 64.678 15.9196 63.4994C14.7182 62.5097 14.5065 60.4034 14.2883 58.9867C14.0931 57.7151 13.9937 56.4325 13.8031 55.16C13.7663 54.9164 13.5969 53.6138 13.259 54.3773C12.4194 56.2747 9.8416 63.7193 13.5223 69.6213C14.0415 70.4542 14.6096 71.2587 15.1518 72.0761C16.7141 74.4341 18.7524 76.504 21.3219 77.7728C25.0376 79.6064 29.4732 79.8718 33.4301 78.6851C38.327 77.2164 42.7423 72.6188 44.7999 68.0632C46.6955 63.8689 46.0704 58.5042 44.2466 54.3773H44.2457Z" fill="black"/>
            <path d="M38.8775 0.669922H18.4127C8.49788 0.669922 0.460327 8.63395 0.460327 18.4581V69.2209C0.460327 79.045 8.49788 87.009 18.4127 87.009H38.8775C48.7923 87.009 56.8299 79.045 56.8299 69.2209V18.4581C56.8299 8.63395 48.7923 0.669922 38.8775 0.669922Z" stroke="black" stroke-width="1.01587"/>
        </g>
        <defs>
            <clipPath id="clip0_1_269__flame">
                <rect width="58" height="88" fill="white"/>
            </clipPath>
        </defs>
    </symbol>
    <symbol id="logo" width="200" height="71" viewBox="0 0 200 71" fill="none" xmlns="http://www.w3.org/2000/svg">
        <g clip-path="url(#clip0_1_141__logo)">
            <path d="M99.893 1.24734L91.4434 11.0691L91.3106 11.2235L91.1214 11.2221L79.0948 11.1333L79.1722 24.9343L79.1734 25.1514L79.0388 25.304L70.4799 35.0001L79.0387 44.696L79.1734 44.8486L79.1722 45.0657L79.0948 58.8667L91.1214 58.7779L91.3106 58.7765L91.4434 58.9309L99.893 68.7527L108.342 58.9309L108.475 58.7765L108.664 58.7779L120.691 58.8667L120.614 45.0657L120.612 44.8486L120.747 44.696L129.306 35.0001L120.747 25.304L120.612 25.1514L120.614 24.9343L120.691 11.1333L108.664 11.2221L108.475 11.2235L108.342 11.0691L99.893 1.24734V1.24734Z" stroke="black" stroke-width="1.02941"/>
            <path d="M109.348 26.9922C109.264 26.6619 108.855 26.683 108.811 27.0234C108.556 29.0181 110.029 33.7355 109.502 35.9184C109.499 35.9325 109.495 35.9466 109.492 35.9607C109.378 36.4295 108.777 36.3376 108.772 35.8512C108.754 33.9655 108.322 31.9035 107.394 30.6408C103.899 25.8833 107.631 22.3732 107.493 21.2354C107.475 21.081 107.346 20.9935 107.217 21.0431C107.212 21.0454 107.208 21.0467 107.206 21.048C106.984 21.1888 106.774 21.3599 106.565 21.5261C105.167 22.6416 103.886 23.9835 103.146 25.7905C102.721 26.8295 102.608 27.9889 102.365 29.0916C102.273 29.5112 102.166 29.9264 102.042 30.3354C101.903 30.7942 101.708 31.2548 101.399 31.5947C101.261 31.7465 101.092 31.8586 100.904 31.9004C100.413 32.0096 100.153 31.6181 100.06 31.1575C99.7999 29.8771 99.9907 28.5844 100.088 27.2957C100.48 22.1071 95.5498 21.6242 97.3514 14.0588C97.829 12.0535 91.3777 18.643 93.551 24.3764C93.976 25.4975 93.9369 26.5673 93.4547 27.6485C92.9411 28.799 92.3094 29.8411 91.9978 31.1012C91.8859 31.5543 91.8231 32.0126 91.7735 32.4785C91.7099 33.0775 91.8617 33.9779 91.1718 34.1335C90.8858 34.1982 90.4895 34.1626 90.2527 33.9479C90.0675 33.7799 89.9652 33.5183 89.9043 33.2565C89.6187 32.0328 89.654 30.7951 89.7896 29.546C89.9088 28.4464 89.9924 26.3751 88.9958 28.4423C85.785 35.103 85.8999 43.3991 89.8199 49.6488C91.3271 52.0518 93.2393 53.5834 95.7415 54.2831C100.829 55.7056 106.912 55.275 110.116 50.259C111.339 48.3429 112.074 46.003 112.554 43.7113C113.168 40.7836 113.286 38.0025 112.325 35.1615C111.393 32.4045 110.075 29.8419 109.348 26.9922Z" fill="black"/>
        </g>
        <path d="M160.5 35.5C160.5 31.0817 164.082 27.5 168.5 27.5C172.918 27.5 176.5 31.0817 176.5 35.5C176.5 39.9183 172.918 43.5 168.5 43.5C164.082 43.5 160.5 39.9183 160.5 35.5Z" fill="#8B83F6" stroke="black"/>
        <path d="M22.5 35.5C22.5 31.0817 26.0817 27.5 30.5 27.5C34.9183 27.5 38.5 31.0817 38.5 35.5C38.5 39.9183 34.9183 43.5 30.5 43.5C26.0817 43.5 22.5 39.9183 22.5 35.5Z" fill="#FB4B4D" stroke="black"/>
        <defs>
            <clipPath id="clip0_1_141__logo">
                <rect width="61" height="70" fill="white" transform="translate(69)"/>
            </clipPath>
        </defs>
    </symbol>
    <symbol id="pepper" width="68" height="31" viewBox="0 0 68 31" fill="none" xmlns="http://www.w3.org/2000/svg">
        <path d="M39.7563 21.7571C39.6255 21.6819 39.4936 21.6077 39.3638 21.5304C38.8941 21.2388 38.3925 21.0019 37.8688 20.8247C37.6325 20.7439 37.4007 20.6507 37.1744 20.5454C36.9869 20.462 36.788 20.4105 36.5922 20.3497C35.8195 20.1148 35.0066 20.0375 34.2215 19.8572C34.1865 19.849 34.1515 19.8397 34.1154 19.8387C34.0659 19.8366 34.0196 19.8634 34.0052 19.9128C33.9731 20.0235 33.9476 20.136 33.9289 20.2497C33.9238 20.2776 33.9516 20.3219 33.9763 20.3383C34.0721 20.4033 34.1752 20.4517 34.2936 20.4723C34.6831 20.5423 35.0705 20.6176 35.4579 20.6928C35.6258 20.7247 35.7927 20.7587 35.9596 20.7958C36.0204 20.8092 36.0822 20.8257 36.1369 20.8535C36.2656 20.9194 36.4016 20.9545 36.549 20.9658C36.6365 20.973 36.7272 20.9967 36.8065 21.0338C37.2568 21.2502 37.7328 21.4047 38.1985 21.584C38.3067 21.6252 38.4107 21.6767 38.5107 21.7344C38.9661 21.9961 39.4194 22.2619 39.8738 22.5277C40.0427 22.6256 40.2107 22.7266 40.3786 22.8255C40.7341 23.0336 41.1173 23.1789 41.5161 23.286C41.991 23.4138 42.4639 23.5477 42.9399 23.6755C43.2171 23.7497 43.4994 23.8043 43.792 23.8053C44.2216 23.8074 44.6368 23.8795 45.0541 23.9516C45.3632 24.0052 45.6775 24.0443 45.9896 24.0887L47.2188 24.2638C47.3259 24.2793 47.4331 24.2937 47.5402 24.305C47.7772 24.3318 48.0121 24.2978 48.246 24.2133C48.3497 24.1731 48.4575 24.144 48.5675 24.1268C48.7498 24.1031 48.8848 24.0196 48.9538 23.8331C48.9806 23.759 49.029 23.7239 49.1001 23.7177C49.4113 23.693 49.7214 23.6683 50.0222 23.7456C50.117 23.7703 50.2149 23.7868 50.3118 23.8053C50.4577 23.8371 50.6103 23.814 50.7404 23.7404C51.0546 23.5622 51.3792 23.5405 51.7068 23.5766C52.3456 23.6487 52.9699 23.7723 53.5861 23.932C54.0888 24.0619 54.5855 24.2164 55.0944 24.3215C55.692 24.4451 56.2762 24.6151 56.8665 24.7645C57.4013 24.9005 57.9453 24.952 58.5068 24.9047C58.8993 24.8707 59.2919 24.847 59.6844 24.8016C60.2325 24.7357 60.7796 24.7213 61.3267 24.6965C62.0304 24.6656 62.7331 24.61 63.4347 24.4822C63.4883 24.4719 63.546 24.4616 63.5975 24.4688C63.6253 24.473 63.649 24.5121 63.6665 24.541C63.6707 24.5502 63.6439 24.5935 63.6253 24.5997C63.3121 24.7068 63.0278 24.884 62.7434 25.0602C62.4024 25.2714 62.0603 25.4816 61.7203 25.6949C61.6317 25.7505 61.541 25.8072 61.4627 25.8773C61.397 25.9339 61.3416 26.0016 61.2989 26.0771C61.201 26.2595 61.3082 26.4316 61.5039 26.412C61.5681 26.4038 61.6307 26.3857 61.6894 26.3584C61.7584 26.3275 61.8233 26.2853 61.8882 26.2451C62.3189 25.9793 62.7516 25.7165 63.1802 25.4456C63.5172 25.2333 63.8736 25.0953 64.2497 25.0221C64.3218 25.0077 64.3939 24.9891 64.4671 24.9788C65.2079 24.8696 65.8395 24.4946 66.4061 23.9722C66.5345 23.8443 66.6882 23.7446 66.8574 23.6796C66.9682 23.6459 67.0655 23.5782 67.1356 23.4859C67.1977 23.3997 67.2914 23.3415 67.3962 23.3242C67.5178 23.3036 67.6157 23.354 67.6507 23.4715C67.6718 23.5449 67.6778 23.6219 67.6682 23.6977C67.6586 23.7735 67.6338 23.8466 67.5951 23.9125C67.4447 24.1742 67.3087 24.4451 67.1232 24.6873C66.9759 24.881 66.843 25.086 66.6977 25.2817C66.4288 25.6475 66.1001 25.9453 65.7375 26.2028C65.3927 26.4437 65.0312 26.6596 64.6556 26.8488C64.4197 26.9694 64.1848 27.0951 63.9509 27.2197C63.8239 27.2894 63.7085 27.3784 63.6088 27.4835C63.4863 27.6073 63.3602 27.7275 63.2307 27.8441C63.1052 27.9631 62.9625 28.0624 62.8073 28.1388C62.731 28.1748 62.661 28.2274 62.5909 28.2779C62.4188 28.4005 62.253 28.5334 62.0778 28.6498C61.8048 28.8311 61.5163 28.9692 61.2041 29.0413C61.0702 29.0722 60.9332 29.1176 60.8064 29.1783C60.6507 29.2614 60.4759 29.3019 60.2995 29.2958C60.1984 29.2889 60.0969 29.3018 60.0007 29.3339C59.3506 29.5668 58.685 29.6574 58.0184 29.7306C57.6527 29.7718 57.2869 29.7842 56.9232 29.8161C56.6131 29.8429 56.3019 29.8759 55.9918 29.9099C55.59 29.9542 55.1892 30.0026 54.7874 30.05C54.7328 30.0562 54.6802 30.0603 54.6339 30.1056C54.4701 30.2622 54.2702 30.3045 54.0672 30.3343C53.769 30.3764 53.4674 30.3895 53.1667 30.3735C53.0026 30.3605 52.8374 30.3713 52.6763 30.4054C52.5973 30.4278 52.5147 30.4341 52.4333 30.4238C52.3518 30.4135 52.2733 30.387 52.2024 30.3457C52.1405 30.3076 52.0859 30.3127 52.0231 30.3354C51.953 30.3611 51.8819 30.3848 51.8108 30.4116C51.545 30.5095 51.2751 30.5713 50.999 30.5919C50.8444 30.6043 50.6899 30.63 50.5343 30.6507C50.2767 30.6836 50.0284 30.6692 49.776 30.6239C48.9615 30.4776 48.1451 30.3423 47.327 30.2179C46.4007 30.0788 45.4693 29.9655 44.5452 29.8223C44.0755 29.7443 43.6091 29.6481 43.147 29.5338C42.5288 29.3875 41.9138 29.2247 41.3162 29.0125C40.9633 28.8871 40.6126 28.7555 40.2642 28.6179C40.1319 28.5642 40.0053 28.4976 39.8861 28.419C39.5873 28.2253 39.2885 28.0306 39.0001 27.8214C38.7682 27.6545 38.5828 27.432 38.4076 27.2033C38.3131 27.0823 38.222 26.9586 38.1346 26.8323C37.8029 26.3481 37.3681 25.9834 36.8828 25.6763C36.5809 25.4847 36.2512 25.3487 35.9246 25.2076C35.7185 25.12 35.5084 25.0458 35.3013 24.9644C35.1949 24.915 35.0785 24.8911 34.9613 24.8943C34.9083 24.8953 34.857 24.9127 34.8144 24.944C34.7718 24.9754 34.7399 25.0192 34.7233 25.0695C34.7045 25.1129 34.7001 25.1612 34.7106 25.2074C34.7212 25.2535 34.7462 25.2951 34.782 25.326C34.8541 25.3899 34.9365 25.4476 35.0252 25.4868C35.2446 25.5847 35.4682 25.6722 35.6928 25.7608C36.244 25.9782 36.755 26.2616 37.1991 26.6572C37.2856 26.7345 37.3639 26.822 37.4412 26.9086C37.4711 26.9405 37.4927 26.9807 37.5164 27.0178C37.4639 27.0652 37.4134 27.0405 37.3619 27.025C37.0631 26.9292 36.7437 26.9117 36.4336 26.8643C35.9978 26.7963 35.5619 26.7324 35.1251 26.6654C34.8869 26.6238 34.6534 26.5592 34.4276 26.4728C33.8485 26.2667 33.2675 26.0607 32.6905 25.8463C32.3484 25.7196 32.0105 25.5805 31.6736 25.4383C31.2388 25.255 30.8071 25.0643 30.3754 24.8748C30.1786 24.7893 29.9839 24.7017 29.7902 24.611C29.4759 24.4627 29.1638 24.3102 28.8495 24.1618C28.5682 24.0299 28.2828 23.9022 28.0005 23.7713C27.7255 23.6446 27.4504 23.5189 27.1784 23.387C26.929 23.2675 26.6848 23.1397 26.4365 23.0182C25.9873 22.8018 25.5402 22.5803 25.0869 22.3732C24.7581 22.214 24.4515 22.0124 24.175 21.7736C23.5072 21.2224 22.8637 20.6425 22.2463 20.0354C22.0742 19.8665 21.8878 19.714 21.7085 19.5533C21.6972 19.543 21.692 19.5244 21.6838 19.51L21.759 19.4801C21.7672 19.477 21.7775 19.4801 21.7858 19.4822C22.0948 19.5399 22.4019 19.611 22.6924 19.7263C23.1643 19.9139 23.6238 20.1313 24.0607 20.3899C24.513 20.6577 24.9756 20.9071 25.4619 21.108C25.9667 21.3151 26.4963 21.448 27.0393 21.5356C27.1208 21.545 27.2033 21.5408 27.2835 21.5232C27.3391 21.5109 27.3911 21.4855 27.4349 21.449C27.5534 21.3542 27.5688 21.2017 27.472 21.1008C27.436 21.0616 27.3911 21.0316 27.3412 21.0132C27.2484 20.9823 27.1516 20.9637 27.0547 20.9431C26.6591 20.8628 26.2645 20.7752 25.8905 20.6289C25.5144 20.4888 25.1493 20.3208 24.7984 20.1261C24.5665 19.9942 24.3388 19.8531 24.1029 19.7284C23.6393 19.4832 23.1695 19.2493 22.6646 19.0896C22.2278 18.9485 21.7744 18.8654 21.3159 18.8423C21.0718 18.831 20.8265 18.8238 20.5824 18.8135C20.4917 18.8104 20.4 18.8094 20.3104 18.798C20.2135 18.7857 20.1167 18.7713 20.0445 18.6888C19.9807 18.6167 19.89 18.5971 19.7952 18.6322C19.6994 18.6672 19.6128 18.6445 19.5284 18.6198C19.0745 18.4867 18.6281 18.3295 18.191 18.149C17.7964 17.9841 17.4008 17.8223 17.0185 17.6307C16.8985 17.5727 16.7813 17.5091 16.6672 17.4401C16.4096 17.2794 16.1572 17.1125 15.9048 16.9476C15.6312 16.7775 15.3841 16.5682 15.1712 16.3263C15.0733 16.211 14.9909 16.0791 14.9033 15.9544C14.8776 15.9173 14.8611 15.872 14.8343 15.837C14.7972 15.7875 14.7261 15.7473 14.721 15.6937C14.7158 15.6144 14.7519 15.5268 14.7776 15.4444C14.8013 15.3713 14.8353 15.3002 14.8652 15.228C14.9641 14.9931 15.0342 14.752 15.0507 14.5007C15.0579 14.4048 15.0682 14.309 15.0692 14.2142C15.0775 13.7928 15.1444 13.3766 15.232 12.9583C15.3144 12.5585 15.4319 12.1753 15.6019 11.7992C15.9336 11.0646 16.4467 10.5731 17.205 10.3928C17.5914 10.3001 17.9695 10.2795 18.3301 10.4299C18.3961 10.4577 18.4682 10.468 18.5352 10.4928C18.7742 10.5824 19.0235 10.5979 19.2832 10.567C19.7138 10.5154 20.1414 10.502 20.5638 10.5597C21.0099 10.6216 21.455 10.6906 21.8795 10.8338C22.0578 10.8925 22.2298 10.9677 22.406 11.0296C22.4891 11.0625 22.5766 11.0833 22.6656 11.0914C22.8346 11.0986 22.9418 10.9265 22.8645 10.773C22.7794 10.6132 22.6408 10.4885 22.473 10.4207C22.153 10.2815 21.8185 10.1785 21.4756 10.1136C21.3087 10.0796 21.1398 10.0518 20.9718 10.0209C20.4342 9.92682 19.8857 9.91259 19.3439 9.97865C19.1111 10.0065 18.8885 9.99926 18.6773 9.91271C18.6444 9.89829 18.6052 9.89829 18.5743 9.88489C18.0561 9.66544 17.5162 9.71489 16.966 9.86326C16.9032 9.87974 16.8413 9.90344 16.7775 9.91683C16.7548 9.92096 16.7177 9.91374 16.7332 9.87356C16.7929 9.71902 16.8568 9.5655 16.9825 9.45011C17.067 9.37077 17.1484 9.28526 17.2401 9.21726C17.442 9.06786 17.6357 8.90817 17.8129 8.72889C17.8793 8.66022 17.9647 8.61288 18.0581 8.59289C18.2951 8.54035 18.5135 8.43629 18.733 8.31471C18.9298 8.20447 19.1502 8.14368 19.3635 8.07774C19.4398 8.05302 19.5273 8.06641 19.6067 8.07774C19.7313 8.09423 19.856 8.11689 19.9776 8.1478C20.4196 8.26114 20.8636 8.37138 21.3005 8.49811C21.5838 8.58053 21.861 8.68047 22.135 8.78659C22.8748 9.07405 23.6166 9.35635 24.3759 9.59332C24.6397 9.67574 24.9086 9.74786 25.1744 9.82514C25.5433 9.93435 25.8977 10.0807 26.2408 10.2527C26.6859 10.4773 27.1268 10.7071 27.5534 10.9677C28.0098 11.2459 28.3725 11.623 28.6661 12.0763C28.8196 12.3113 28.969 12.5503 29.1298 12.777C29.445 13.222 29.8232 13.6033 30.2198 13.9639C30.3115 14.0463 30.4218 14.1102 30.5279 14.1751C30.6052 14.2225 30.6927 14.239 30.7885 14.2204C30.9462 14.1905 31.0482 14.0092 30.9719 13.8701C30.9239 13.7839 30.8583 13.7088 30.7793 13.6496C30.5351 13.4673 30.3249 13.2478 30.1116 13.0314C29.8544 12.7668 29.6232 12.478 29.4213 12.1691C29.397 12.1309 29.3756 12.091 29.3575 12.0496C29.3533 12.0423 29.3708 12.0125 29.3781 12.0125C29.4502 12.0125 29.5223 12.0125 29.5944 12.0187C30.0951 12.0692 30.5885 12.1752 31.0657 12.335C31.3109 12.4153 31.5541 12.506 31.7766 12.6389C32.0826 12.8213 32.3948 12.9943 32.6936 13.187C32.9336 13.3395 33.1562 13.5208 33.3921 13.6785C33.7836 13.9422 34.1648 14.2204 34.5801 14.4481C34.6027 14.4605 34.6254 14.478 34.6512 14.4842C34.8974 14.548 35.1004 14.6974 35.3209 14.8118C35.4785 14.8942 35.6402 14.9684 35.7989 15.0498C36.0998 15.2054 36.3913 15.3733 36.6675 15.5722C37.1156 15.8947 37.5442 16.2429 37.9708 16.5953C38.3623 16.9188 38.7518 17.2464 39.1587 17.5493C39.509 17.81 39.8758 18.0459 40.2436 18.2808C41.0267 18.7785 41.7633 19.3359 42.4011 20.0231C42.7741 20.4249 43.1862 20.7803 43.6045 21.1286C43.7817 21.2759 43.9744 21.4068 44.165 21.5366C44.4019 21.6963 44.6389 21.856 44.8852 21.9982C45.1551 22.1527 45.4312 22.297 45.7135 22.4288C46.4399 22.7709 47.1147 23.2047 47.8225 23.5828C47.8535 23.5993 47.8844 23.6178 47.9132 23.6384C47.9266 23.6487 47.9348 23.6662 47.9462 23.6796C47.9225 23.694 47.8978 23.7188 47.8741 23.7188C47.7484 23.7198 47.6185 23.727 47.4949 23.7105C47.1735 23.6673 46.8551 23.6127 46.5347 23.5622C46.4553 23.5498 46.376 23.5292 46.2946 23.5251C45.833 23.4973 45.3828 23.4128 44.9315 23.3303C44.6034 23.2668 44.2704 23.2323 43.9362 23.2273C43.6833 23.2258 43.4316 23.1918 43.1872 23.1263C42.6082 22.9718 42.0312 22.8111 41.4553 22.6473C41.1973 22.5739 40.9495 22.4687 40.7176 22.334L39.746 21.7736C39.7501 21.7694 39.7532 21.7633 39.7563 21.7571Z" fill="black"/>
        <path d="M7.80454 8.10141C7.94466 8.16323 8.12806 8.25596 8.31969 8.32602C8.6123 8.4342 8.90903 8.53208 9.20781 8.6248C9.49939 8.71547 9.80333 8.75256 10.1145 8.74844C10.2598 8.74844 10.4061 8.74535 10.5513 8.73608C10.9946 8.70415 11.4402 8.73152 11.8763 8.81747C11.9299 8.82778 11.9845 8.8319 12.036 8.84632C12.1184 8.86899 12.1957 8.84838 12.274 8.80511C12.4162 8.72784 12.5604 8.65777 12.7036 8.58359C12.8201 8.52301 12.9477 8.48689 13.0787 8.47747C13.2971 8.46202 13.5165 8.44141 13.735 8.43626C13.9544 8.43111 14.1687 8.40638 14.3871 8.34147C14.6272 8.26935 14.8745 8.23123 15.1187 8.1828C15.301 8.14571 15.4782 8.09008 15.6524 8.01487C16.0219 7.8592 16.4113 7.75586 16.8094 7.70784C17.0845 7.67074 17.3544 7.70784 17.6192 7.75935C17.7377 7.78202 17.7665 7.87681 17.7016 7.99632C17.6131 8.15908 17.4839 8.2961 17.3266 8.39402C16.9485 8.63099 16.6394 8.95038 16.3561 9.29862C16.2873 9.38111 16.2326 9.47441 16.1943 9.57474C16.1123 9.78394 15.9858 9.97275 15.8234 10.128C15.7358 10.2187 15.6462 10.3083 15.5617 10.4021C15.4934 10.4826 15.4092 10.5482 15.3144 10.5947C15.1764 10.6586 15.0981 10.7647 15.0599 10.9244C15.0115 11.1202 14.9456 11.316 14.859 11.5014C14.6839 11.8764 14.587 12.269 14.5201 12.6698C14.4768 12.9263 14.4428 13.1839 14.3985 13.4394C14.3053 14.013 14.1633 14.5776 13.974 15.127C13.9328 15.2445 13.8741 15.3599 13.8091 15.4691C13.6804 15.6855 13.3785 15.7432 13.2157 15.5783C13.142 15.4994 13.0787 15.4115 13.0271 15.3166C12.9859 15.2446 12.9557 15.1668 12.9375 15.0858C12.8654 14.7695 12.7088 14.5078 12.5223 14.2616C12.3544 14.038 12.2081 13.798 12.0381 13.5754C11.8402 13.3189 11.627 13.0767 11.423 12.8264C11.2236 12.5831 11.0258 12.3386 10.8295 12.0928C10.7237 11.9642 10.6581 11.8072 10.641 11.6415C10.6348 11.5797 10.6049 11.5385 10.5482 11.5189C10.0959 11.3555 9.65255 11.1681 9.22018 10.9574C8.71224 10.7204 8.21048 10.4701 7.72624 10.1878C7.39654 9.99614 7.08848 9.76638 6.77527 9.54796C6.44007 9.31191 6.11909 9.05629 5.81399 8.78244C5.37883 8.39353 4.98865 7.95705 4.65078 7.48117C4.48284 7.24626 4.32109 7.0062 4.17066 6.75893C3.78339 6.11319 3.55001 5.38696 3.4886 4.6365C3.43215 4.12286 3.45298 3.60366 3.55042 3.0962C3.60709 2.82214 3.66993 2.54808 3.73793 2.27608C3.76236 2.19423 3.76765 2.10787 3.75339 2.02365C3.70239 1.74639 3.75599 1.46007 3.90381 1.22002C4.00169 1.05105 4.11193 0.88826 4.23351 0.736805C4.39733 0.532805 4.62399 0.489533 4.82593 0.610078C4.89393 0.65129 4.95987 0.702805 5.0083 0.764624C5.1546 0.945957 5.29884 1.13141 5.43072 1.32511C5.61824 1.6002 5.61721 1.91547 5.41218 2.20087C5.32623 2.33 5.25862 2.47043 5.21127 2.61814C5.1783 2.70881 5.15975 2.80462 5.13193 2.89838C5.08557 3.06014 5.05981 3.20953 5.16696 3.35481C5.21539 3.41971 5.21436 3.53099 5.2226 3.62371C5.22981 3.70717 5.22054 3.79474 5.21848 3.88129C5.20053 4.49112 5.32802 5.09645 5.59042 5.64723C5.71509 5.91099 5.85109 6.16959 5.99636 6.42202C6.25703 6.87535 6.60218 7.25141 7.01533 7.55432C7.25951 7.73359 7.51193 7.89947 7.80454 8.10141Z" fill="black"/>
    </symbol>
    <symbol id="ujjo" width="698" height="425" viewBox="0 0 698 425" fill="none" xmlns="http://www.w3.org/2000/svg">
        <g clip-path="url(#clip0_1_166__ujjo)">
            <path d="M168.396 323.161C168.396 383.046 149.442 403.717 94.7026 403.717C39.9645 403.717 21 383.046 21 323.161V26.3712H47.3148V293.477C47.3148 318.386 61.0051 328.453 94.6923 328.453C128.38 328.453 142.07 318.386 142.07 293.477V26.3712H168.396V323.161ZM264.885 397.361H191.193V322.107H264.885C303.836 322.107 312.263 312.04 312.263 287.131V26.3712H338.589V316.794C338.589 376.162 325.426 397.361 264.885 397.361ZM434.02 397.361H360.327V322.107H434.02C472.97 322.107 481.397 312.04 481.397 287.131V26.3712H507.723V316.794C507.712 376.162 494.549 397.361 434.02 397.361ZM603.749 403.718C543.208 403.718 530.056 382.52 530.056 323.162V100.571C530.056 41.2141 543.219 20.0152 603.749 20.0152C664.289 20.0152 677.441 41.2133 677.441 100.571V323.162C677.441 382.52 664.289 403.718 603.749 403.718ZM603.749 95.2701C564.798 95.2701 556.371 105.336 556.371 130.245V293.477C556.371 318.386 564.798 328.453 603.749 328.453C642.699 328.453 651.126 318.386 651.126 293.477V130.256C651.126 105.347 642.699 95.2693 603.749 95.2693V95.2701Z" fill="black"/>
        </g>
        <g clip-path="url(#clip1_1_166__ujjo)">
            <path d="M624.061 162.447H525.724C525.424 162.446 525.129 162.375 524.861 162.24C524.594 162.104 524.362 161.908 524.185 161.666L499.879 128.526C487.298 111.386 476.235 99.689 466.981 93.7697C462.213 90.7117 455.83 88.403 448.029 86.8971C440.4 85.4318 431.135 84.6848 420.515 84.6848H404.782C403.448 84.6848 402.516 86.0179 402.993 87.2762L403.394 88.3385L412.041 111.321L412.236 111.831C412.374 112.194 412.618 112.507 412.938 112.728C413.257 112.949 413.637 113.067 414.025 113.066H432.944C448.017 113.066 459.601 114.66 467.349 117.804C474.977 120.894 483.321 128.32 492.174 139.865L507.052 159.357C508.017 160.615 507.118 162.435 505.535 162.435H73.5104C73.0019 162.436 72.5144 162.639 72.1548 162.999C71.7952 163.358 71.5929 163.846 71.592 164.355V185.148C71.5931 185.656 71.7955 186.144 72.1551 186.503C72.5147 186.863 73.002 187.065 73.5104 187.066H178.295C178.783 187.066 179.249 187.251 179.596 187.576C186.921 194.46 190.627 201.474 190.627 208.434C190.627 216.824 187.018 222.852 179.607 226.885C171.761 231.156 157.501 233.411 137.216 233.595L135.916 233.607C134.474 233.617 133.563 235.156 134.246 236.425L134.864 237.574L145.809 257.987L146.036 258.421C146.204 258.733 146.454 258.992 146.76 259.17C147.066 259.348 147.416 259.438 147.77 259.429L148.258 259.418C161.001 259.082 171.891 257.293 180.669 254.095C180.983 253.982 181.322 253.953 181.651 254.012C181.98 254.071 182.288 254.215 182.543 254.431C187.235 258.345 190.854 262.638 193.314 267.224C196.11 272.406 197.519 278.162 197.519 284.299C197.519 292.147 194.604 298.24 188.622 302.923C182.435 307.769 175.489 310.132 167.372 310.132C159.126 310.132 150.804 306.739 142.655 300.061C134.236 293.166 125.123 281.968 115.598 266.78L95.0527 234.181L94.6515 233.541C94.3888 233.123 93.9746 232.824 93.4958 232.704C93.017 232.585 92.5106 232.656 92.0828 232.902L91.4333 233.281L85.7545 236.533L85.0397 236.913C84.8163 237.041 84.6211 237.213 84.4656 237.419C84.3102 237.624 84.1977 237.859 84.135 238.109C84.0723 238.359 84.0606 238.619 84.1006 238.873C84.1406 239.128 84.2315 239.372 84.3679 239.59L84.8009 240.284L105.748 273.826C121.774 299.432 134.388 315.336 144.313 322.458C154.283 329.613 164.913 333.245 175.901 333.245C188.438 333.245 199.003 329.44 207.304 321.927C215.702 314.349 219.96 304.603 219.96 292.949C219.96 283.789 217.457 275.051 212.538 266.996C208.572 260.513 202.947 254.334 195.785 248.588C195.561 248.41 195.381 248.184 195.256 247.927C195.131 247.67 195.065 247.389 195.063 247.103C195.061 246.817 195.123 246.534 195.244 246.276C195.365 246.017 195.543 245.788 195.763 245.607C199.329 242.669 202.2 239.266 204.345 235.449C207.445 229.92 209.016 223.427 209.016 216.142C209.016 206.146 205.939 197.462 199.827 190.221C198.775 188.974 199.653 187.066 201.279 187.066H455.234C455.486 187.066 455.736 187.115 455.969 187.211C456.202 187.308 456.413 187.449 456.592 187.627C456.77 187.805 456.911 188.017 457.007 188.25C457.104 188.483 457.153 188.733 457.152 188.985V211.935C457.151 212.444 456.949 212.931 456.589 213.291C456.23 213.651 455.742 213.853 455.234 213.854H377.94C376.228 213.854 375.383 215.935 376.597 217.128L377.962 218.483C394.715 234.972 404.673 246.062 407.545 251.439C410.34 256.643 411.759 261.11 411.759 264.709C411.759 269.392 410.351 273.024 407.458 275.799C404.521 278.617 400.805 279.983 396.08 279.983C389.524 279.983 381.701 275.778 372.858 267.462C365.858 260.893 358.425 249.813 350.763 234.538L350.742 234.495L341.986 215.426L341.78 214.971C341.629 214.638 341.385 214.356 341.078 214.157C340.77 213.959 340.412 213.854 340.047 213.854H267.553C265.84 213.854 264.995 215.935 266.209 217.128L267.585 218.483C284.338 234.972 294.296 246.062 297.168 251.439C299.964 256.643 301.383 261.11 301.383 264.709C301.383 269.392 299.974 273.024 297.081 275.799C294.144 278.617 290.427 279.983 285.703 279.983C279.147 279.983 271.323 275.778 262.481 267.462C253.379 258.92 243.605 242.832 233.441 219.665L233.082 218.841C232.972 218.592 232.811 218.369 232.608 218.188C232.405 218.007 232.167 217.87 231.907 217.788C231.648 217.706 231.374 217.68 231.104 217.712C230.834 217.744 230.574 217.833 230.341 217.973L229.572 218.429L224.165 221.681L223.612 222.017C223.232 222.244 222.942 222.597 222.794 223.014C222.645 223.432 222.647 223.888 222.8 224.304L223.016 224.912C231.837 249.629 242.153 269.306 253.682 283.388C259.545 290.564 265.602 296.039 271.67 299.671C277.89 303.389 284.294 305.275 290.709 305.275C301.047 305.275 309.716 301.85 316.478 295.085C323.228 288.331 326.663 279.745 326.663 269.576C326.663 264.015 325.027 258.139 321.809 252.112C319.967 248.654 317.572 245.087 314.647 241.455C313.639 240.208 314.527 238.343 316.131 238.343H337.229C337.998 238.343 338.703 238.81 338.995 239.525C346.45 257.456 354.87 272.2 364.037 283.399C369.9 290.576 375.957 296.05 382.025 299.682C388.245 303.4 394.66 305.287 401.075 305.287C411.413 305.287 420.082 301.861 426.844 295.096C433.605 288.342 437.029 279.756 437.029 269.587C437.029 264.026 435.394 258.15 432.186 252.123C430.344 248.664 427.938 245.097 425.023 241.455C424.016 240.208 424.904 238.343 426.508 238.343H455.234C455.486 238.343 455.736 238.392 455.969 238.489C456.202 238.585 456.413 238.726 456.592 238.905C456.77 239.083 456.911 239.295 457.007 239.528C457.104 239.761 457.153 240.01 457.152 240.263V321.559C457.152 322.036 457.336 322.501 457.662 322.859L457.867 323.087L473.547 340.118L473.786 340.378C474.154 340.768 474.664 340.996 475.195 340.996H482.01C482.519 340.995 483.006 340.793 483.365 340.433C483.725 340.074 483.927 339.586 483.929 339.078V189.007C483.929 188.498 484.132 188.011 484.491 187.651C484.851 187.292 485.338 187.089 485.846 187.088H511.095C511.603 187.089 512.09 187.292 512.45 187.651C512.809 188.011 513.011 188.498 513.012 189.007V319.78C513.012 320.236 513.175 320.68 513.479 321.027L513.674 321.255L529.895 340.042L530.133 340.314C530.491 340.736 531.022 340.975 531.575 340.975H537.697C538.206 340.974 538.693 340.771 539.053 340.411C539.412 340.052 539.615 339.564 539.615 339.055V188.985C539.616 188.477 539.819 187.989 540.178 187.629C540.537 187.27 541.025 187.067 541.533 187.066H624.874C625.382 187.065 625.87 186.863 626.229 186.503C626.588 186.144 626.791 185.656 626.792 185.148V164.355C626.791 163.846 626.589 163.358 626.229 162.999C625.87 162.639 625.382 162.436 624.874 162.435L624.061 162.447Z" fill="#FFFCF7" stroke="black" stroke-width="2.6806" stroke-miterlimit="10"/>
        </g>
        <defs>
            <clipPath id="clip0_1_166__ujjo">
                <rect width="657" height="384" fill="white" transform="translate(21 20)"/>
            </clipPath>
            <clipPath id="clip1_1_166__ujjo">
                <rect width="558" height="259" fill="white" transform="translate(70 83)"/>
            </clipPath>
        </defs>
    </symbol>
</svg>